<?xml version="1.0" encoding="utf-8"?>
<!-- Generator: Adobe Illustrator 22.0.1, SVG Export Plug-In . SVG Version: 6.00 Build 0)  -->
<svg version="1.1" id="Layer_1" xmlns="http://www.w3.org/2000/svg" xmlns:xlink="http://www.w3.org/1999/xlink" x="0px" y="0px"
	 viewBox="0 0 512 512" style="enable-background:new 0 0 512 512;" xml:space="preserve">
<style type="text/css">
	.st0{fill:#62775D;}
</style>
<path class="st0" d="M103.2,222.6c6.7,11.3,11.3,18.1,17.2,28.6c-25.2,0-48.3,0-73.9,0c-8-23.5-4.2-48.3-2.5-75.6
	c10.1,5.9,18.1,10.5,28.1,16.4c8-6.7,16-13,23.5-20.2c24.8-24.4,49.6-48.7,73.9-73.5c47-49.1,141.1-37.4,165.5,45.8
	c9.7,34-3.4,62.1-26,86.5c-22.3,23.9-46.6,45.8-68.4,69.7c-9.2,10.5-17.2,24.4-20.2,37.8c-4.6,21.8,2.1,42.4,23.1,54.2
	c21,11.8,44.5,13,62.1-2.5c35.7-31.9,68.9-67.2,103.7-101.2c-8.4-11.3-14.3-19.7-22.3-30.7c27.7-4.6,52.9-5.5,78.5,0.8
	c12.2,25.2-2.9,47.9,0,74.7c-10.9-5.9-18.9-10.1-28.6-15.1c-31.9,31.9-63.4,62.6-94.1,94.1c-28.6,29.4-62.6,37-101.2,24.8
	c-35.3-11.3-55.4-37-64.2-71.8c-9.2-35.7,7.1-63.8,29.4-89c22.7-24.8,47.9-47.5,71-71.8c23.9-25.6,22.3-58.8-2.9-81
	c-16.4-14.7-35.7-19.3-55.4-8.4c-12.6,6.7-24.8,16-35.3,26C157.4,166.8,131.3,194.1,103.2,222.6z"/>
</svg>
