<?xml version="1.0" encoding="utf-8"?>
<!-- Generator: Adobe Illustrator 22.0.1, SVG Export Plug-In . SVG Version: 6.00 Build 0)  -->
<svg version="1.1" id="Layer_1" xmlns="http://www.w3.org/2000/svg" xmlns:xlink="http://www.w3.org/1999/xlink" x="0px" y="0px"
	 viewBox="0 0 701.2 125.6" style="enable-background:new 0 0 701.2 125.6;" xml:space="preserve">
<style type="text/css">
	.st0{fill:#62775D;}
	.st1{fill:#40513B;}
</style>
<g>
	<path class="st0" d="M223.5,74.1c1.6,2.7,2.7,4.3,4.1,6.8c-6,0-11.5,0-17.6,0c-1.9-5.6-1-11.5-0.6-18c2.4,1.4,4.3,2.5,6.7,3.9
		c1.9-1.6,3.8-3.1,5.6-4.8c5.9-5.8,11.8-11.6,17.6-17.5c11.2-11.7,33.6-8.9,39.4,10.9c2.3,8.1-0.8,14.8-6.2,20.6
		c-5.3,5.7-11.1,10.9-16.3,16.6c-2.2,2.5-4.1,5.8-4.8,9c-1.1,5.2,0.5,10.1,5.5,12.9c5,2.8,10.6,3.1,14.8-0.6
		c8.5-7.6,16.4-16,24.7-24.1c-2-2.7-3.4-4.7-5.3-7.3c6.6-1.1,12.6-1.3,18.7,0.2c2.9,6-0.7,11.4,0,17.8c-2.6-1.4-4.5-2.4-6.8-3.6
		c-7.6,7.6-15.1,14.9-22.4,22.4c-6.8,7-14.9,8.8-24.1,5.9c-8.4-2.7-13.2-8.8-15.3-17.1c-2.2-8.5,1.7-15.2,7-21.2
		c5.4-5.9,11.4-11.3,16.9-17.1c5.7-6.1,5.3-14-0.7-19.3c-3.9-3.5-8.5-4.6-13.2-2c-3,1.6-5.9,3.8-8.4,6.2
		C236.4,60.8,230.2,67.3,223.5,74.1z"/>
	<path class="st1" d="M355.2,124.6c-3.4,0-5.5,0-7.4,0c-2.2-5.9-2.7-116.2-0.6-125.4c2.2,0,4.5,0,7.9,0c0,14.7,0.1,29.1,0.1,43.6
		c0,14.3,0,28.6,0,44.3c5.5-4.7,10.3-8.4,14.7-12.5c12.6-11.4,25.2-22.9,37.6-34.6c3.7-3.5,7.5-4.6,13.3-3.1
		C410.2,50.1,396,59,385.2,72.4c13.4,16.9,26.8,33.9,41.3,52.3c-4.3,0.2-7.1,0.3-10.1,0.5c-12.7-15.8-25.2-31.4-38.2-47.5
		c-7,6.3-13.8,12.2-20.1,18.6c-1.8,1.9-2.6,5.3-2.8,8.1C354.9,110.7,355.2,117.2,355.2,124.6z"/>
	<path class="st1" d="M179.6,124.5c-3.1,0-5.2,0-8,0c-0.2-4.4-0.5-8.4-0.7-13c-2.6,2.5-4.8,4.8-7.2,6.7c-12,9.3-33,9.2-46.2,1.5
		c-13-7.6-14.1-32.4,2-40.1c5-2.4,10.9-3.7,16.6-4.1c8.7-0.7,17.5-0.2,26.3-0.2c2.5,0,4.9,0,7.2,0c5.2-17.2-5.1-32-22.4-32.4
		c-9.6-0.2-18.9,1.6-27.3,6.9c-1.7,1.1-3.4,2-5.6,3.2c-1.3-1.5-2.6-2.9-3.6-4.2c0.3-0.9,0.3-1.6,0.6-1.8
		c14.7-11.1,30.9-14.8,48.8-9.2c11.3,3.5,17.2,11.8,18.8,23.1c1,6.9,1.2,14,1.3,21c0.2,11.3,0.1,22.6,0,33.8
		C180.1,118.3,179.8,121,179.6,124.5z M169.9,82c-11.6,0-22.8-0.1-34,0.1c-2.7,0-5.4,0.9-8,1.7c-12.5,3.8-16,19-6.7,28.3
		c4.7,4.7,10.5,5.1,16.5,5.9C159.2,121,174.6,104.4,169.9,82z"/>
	<path class="st1" d="M454,91.3c1.8,22.2,35.4,37.8,63.9,15.9c1.3,1.2,2.7,2.5,4.2,3.8c-2.8,5.3-7.3,8.3-12,10.3
		c-17.3,7.4-41.3,6.3-56.1-10.3c-7.8-8.8-11.2-19.2-11.2-30.3c0-15.2,4.8-28.7,18.1-37.7c25.6-17.3,61-4.7,66.1,27.3
		c0.3,1.7,0.5,3.4,0.9,5.9c-12.4,3.8-25,5-37.4,7.7C478.4,86.5,466.1,88.8,454,91.3z M452.2,84.7c22.5-4.4,44.5-8.6,66.8-13
		c-2-12.7-8.1-21.4-19-26c-12.8-5.4-25.3-4-36.1,4.8C453.7,59,450.1,70.4,452.2,84.7z"/>
	<path class="st1" d="M633.3,47.4c16.4-10.9,32.7-15.7,50.8-9.6c11.7,3.9,18.3,12.7,18.7,24.7c0.7,19.5,0.2,39.1,0.2,58.6
		c0,0.9-0.4,1.9-0.8,3.3c-1.9,0.2-3.8,0.3-6.5,0.5c-0.4-4.7-0.7-8.8-1.1-13.4c-3.1,2.7-6,5.2-8.9,7.6c-11.4,9.7-36.6,7.1-47.3-1.6
		c-9.5-7.7-11.7-29.9,5-38.1c5-2.5,10.9-3.7,16.5-4.1c8.7-0.7,17.5-0.2,26.3-0.2c2.5,0,4.9,0,7.2,0c5.8-19.1-8.7-34.9-28.6-32.3
		c-9.6,1.3-18.5,4.1-26.9,10.4C636.5,51.4,635.2,49.7,633.3,47.4z M694.3,82.1c-14.2,0-28.1-1.6-41.9,1.4c-6.5,1.4-11.3,7-12.3,13.6
		c-1.1,7.4,1.4,13.8,7.8,17.2c11.1,5.9,28.2,5.9,38.6-3.7C694.7,103,696.4,93.8,694.3,82.1z"/>
	<path class="st1" d="M40.4,13.9c-14.6,0-27.8,0-41.7,0C-1.6,11.1-1.8,9.2-2,6.5c31.3,0,61.7,0,93,0c0.2,2,0.3,4,0.5,7.2
		c-14.2,0-27.6,0-41.9,0c0,37.3,0,73.6,0,110.7c-3.3,0.2-5.8,0.3-9.3,0.5C40.4,87.8,40.4,51.6,40.4,13.9z"/>
	<path class="st1" d="M572.5,51.8c15.4-14.3,19.1-16.1,33.3-15.9c0,2.3,0,4.6,0,7.3c-2.3,0.3-4.2,0.8-6.1,0.9
		c-14.2,0.9-24.4,11.1-26,25.6c-1.5,14.1-1.1,28.4-1.5,42.7c-0.1,3.7,0,7.5,0,11.9c-2.5,0.3-4.6,0.6-6,0.8
		c-2.6-2.6-3.2-75.1-1.3-88.1c1.8-0.2,3.8-0.4,6.7-0.7C571.8,41.6,572.1,46.2,572.5,51.8z"/>
</g>
</svg>
